<svg width="12" height="13" viewBox="0 0 12 13" fill="none" xmlns="http://www.w3.org/2000/svg">
<g clip-path="url(#clip0_206_190)">
<path d="M3.76 11.8301C5.2 11.8301 6.48 11.4701 7.6 10.7501C8.61333 10.0834 9.4 9.20341 9.96 8.11008C10.4933 7.04341 10.76 5.95008 10.76 4.83008V4.51008C11.24 4.16341 11.6533 3.73675 12 3.23008C11.5467 3.44341 11.08 3.57675 10.6 3.63008C11.1333 3.31008 11.4933 2.85675 11.68 2.27008C11.1733 2.56341 10.6533 2.76341 10.12 2.87008C9.72 2.47008 9.24667 2.22341 8.7 2.13008C8.15333 2.03675 7.63333 2.12341 7.14 2.39008C6.64667 2.65675 6.28667 3.04341 6.06 3.55008C5.83333 4.05675 5.78667 4.57675 5.92 5.11008C4.93333 5.05675 3.99333 4.81008 3.1 4.37008C2.20667 3.93008 1.45333 3.32341 0.84 2.55008C0.52 3.11008 0.433333 3.70341 0.58 4.33008C0.726667 4.95675 1.06667 5.45675 1.6 5.83008C1.2 5.80341 0.826667 5.69675 0.48 5.51008V5.55008C0.48 6.13675 0.666667 6.65675 1.04 7.11008C1.41333 7.56341 1.88 7.84341 2.44 7.95008C2.22667 8.03008 2.01333 8.07008 1.8 8.07008C1.64 8.07008 1.49333 8.05675 1.36 8.03008C1.52 8.51008 1.80667 8.91008 2.22 9.23008C2.63333 9.55008 3.10667 9.71008 3.64 9.71008C3.21333 10.0567 2.73333 10.3234 2.2 10.5101C1.66667 10.6967 1.13333 10.7901 0.6 10.7901C0.386667 10.7901 0.186667 10.7767 0 10.7501C1.14667 11.4701 2.4 11.8301 3.76 11.8301Z" fill="#CCCCCC"/>
</g>
<defs>
<clipPath id="clip0_206_190">
<rect width="12" height="12" fill="white" transform="matrix(1 0 0 -1 0 12.5898)"/>
</clipPath>
</defs>
</svg>
