<svg width="12" height="13" viewBox="0 0 12 13" fill="none" xmlns="http://www.w3.org/2000/svg">
<g clip-path="url(#clip0_206_194)">
<path d="M6.04 2.06977H6.12C6.89333 2.09643 7.62667 2.1231 8.32 2.14977C9.54667 2.17643 10.3333 2.2431 10.68 2.34977C10.9467 2.4031 11.1733 2.52977 11.36 2.72977C11.5467 2.92977 11.6733 3.15643 11.74 3.40977C11.8067 3.6631 11.8667 4.01643 11.92 4.46977L11.96 4.78977C11.9867 5.29643 12 5.78977 12 6.26977V6.34977C12 6.85643 11.9733 7.3631 11.92 7.86977V8.02977C11.8667 8.53643 11.8067 8.9231 11.74 9.18977C11.6733 9.45643 11.5467 9.6831 11.36 9.86977C11.1733 10.0564 10.9467 10.1898 10.68 10.2698C10.3067 10.3764 9.48 10.4431 8.2 10.4698C7.48 10.4964 6.76 10.5098 6.04 10.5098H5.96C5.24 10.5098 4.50667 10.4964 3.76 10.4698H3.32C2.30667 10.4164 1.65333 10.3498 1.36 10.2698C1.06667 10.1898 0.826667 10.0564 0.64 9.86977C0.453333 9.6831 0.32 9.45643 0.24 9.18977C0.16 8.9231 0.106667 8.53643 0.08 8.02977V7.86977C0.0266667 7.3631 0 6.85643 0 6.34977V6.26977C0 5.78977 0.0133333 5.33643 0.04 4.90977L0.08 4.46977C0.133333 4.01643 0.193333 3.6631 0.26 3.40977C0.326667 3.15643 0.453333 2.92977 0.64 2.72977C0.826667 2.52977 1.05333 2.4031 1.32 2.34977C1.64 2.26977 2.30667 2.2031 3.32 2.14977L3.76 2.10977C4.48 2.10977 5.18667 2.09643 5.88 2.06977H6.04ZM4.8 4.50977V8.10977L7.92 6.30977L4.8 4.50977Z" fill="#CCCCCC"/>
</g>
<defs>
<clipPath id="clip0_206_194">
<rect width="12" height="12" fill="white" transform="matrix(1 0 0 -1 0 12.5898)"/>
</clipPath>
</defs>
</svg>
