<svg width="12" height="13" viewBox="0 0 12 13" fill="none" xmlns="http://www.w3.org/2000/svg">
<g clip-path="url(#clip0_206_202)">
<path d="M0 1.42984C0 1.21651 0.0866667 1.02318 0.26 0.849844C0.433333 0.676511 0.64 0.589844 0.88 0.589844H11.12C11.36 0.589844 11.5667 0.676511 11.74 0.849844C11.9133 1.02318 12 1.21651 12 1.42984V11.7498C12 11.9632 11.9133 12.1565 11.74 12.3298C11.5667 12.5032 11.36 12.5898 11.12 12.5898H0.88C0.64 12.5898 0.433333 12.5032 0.26 12.3298C0.0866667 12.1565 0 11.9632 0 11.7498V1.42984ZM3.72 10.6298V5.22984H1.92V10.6298H3.72ZM2.8 4.46984C3.12 4.46984 3.37333 4.38318 3.56 4.20984C3.74667 4.03651 3.83333 3.81651 3.82 3.54984C3.80667 3.28318 3.71333 3.05651 3.54 2.86984C3.36667 2.68318 3.12667 2.58984 2.82 2.58984C2.51333 2.58984 2.26667 2.68318 2.08 2.86984C1.89333 3.05651 1.8 3.28318 1.8 3.54984C1.8 3.81651 1.89333 4.03651 2.08 4.20984C2.26667 4.38318 2.50667 4.46984 2.8 4.46984ZM6.48 10.6298V7.58984C6.48 7.40318 6.50667 7.25651 6.56 7.14984C6.61333 6.98984 6.72 6.84318 6.88 6.70984C7.04 6.57651 7.24 6.50984 7.48 6.50984C7.8 6.50984 8.03333 6.61651 8.18 6.82984C8.32667 7.04318 8.4 7.34984 8.4 7.74984V10.6298H10.2V7.50984C10.2 6.70984 10.0067 6.10318 9.62 5.68984C9.23333 5.27651 8.73333 5.06984 8.12 5.06984C7.69333 5.06984 7.33333 5.17651 7.04 5.38984C6.82667 5.52318 6.64 5.72318 6.48 5.98984V5.22984H4.68C4.70667 5.44318 4.70667 6.40318 4.68 8.10984V10.6298H6.48Z" fill="#CCCCCC"/>
</g>
<defs>
<clipPath id="clip0_206_202">
<rect width="12" height="12" fill="white" transform="matrix(1 0 0 -1 0 12.5898)"/>
</clipPath>
</defs>
</svg>
