<svg width="12" height="13" viewBox="0 0 12 13" fill="none" xmlns="http://www.w3.org/2000/svg">
<path d="M6 0.589844C4.88 0.589844 4.04667 0.603177 3.5 0.629844C2.95333 0.65651 2.48 0.749844 2.08 0.909844C1.68 1.06984 1.32667 1.30318 1.02 1.60984C0.713333 1.91651 0.48 2.26984 0.32 2.66984C0.16 3.06984 0.0666667 3.54318 0.04 4.08984C0.0133333 4.63651 0 5.46984 0 6.58984C0 7.70984 0.0133333 8.54318 0.04 9.08984C0.0666667 9.63651 0.16 10.1098 0.32 10.5098C0.48 10.9098 0.713333 11.2632 1.02 11.5698C1.32667 11.8765 1.68 12.1098 2.08 12.2698C2.48 12.4298 2.95333 12.5232 3.5 12.5498C4.04667 12.5765 4.88 12.5898 6 12.5898C7.12 12.5898 7.95333 12.5765 8.5 12.5498C9.04667 12.5232 9.52 12.4298 9.92 12.2698C10.32 12.1098 10.6733 11.8765 10.98 11.5698C11.2867 11.2632 11.52 10.9098 11.68 10.5098C11.84 10.1098 11.9333 9.63651 11.96 9.08984C11.9867 8.54318 12 7.70984 12 6.58984C12 5.46984 11.9867 4.63651 11.96 4.08984C11.9333 3.54318 11.84 3.06984 11.68 2.66984C11.52 2.26984 11.2867 1.91651 10.98 1.60984C10.6733 1.30318 10.32 1.06984 9.92 0.909844C9.52 0.749844 9.04667 0.65651 8.5 0.629844C7.95333 0.603177 7.12 0.589844 6 0.589844ZM5.48 1.66984H6C7.12 1.66984 7.93333 1.68318 8.44 1.70984C8.86667 1.73651 9.22 1.80318 9.5 1.90984C9.78 2.01651 10.02 2.16984 10.22 2.36984C10.42 2.56984 10.5733 2.80984 10.68 3.08984C10.7867 3.36984 10.8533 3.72318 10.88 4.14984C10.9067 4.65651 10.92 5.46984 10.92 6.58984C10.92 7.70984 10.9067 8.52318 10.88 9.02984C10.8533 9.45651 10.7867 9.80984 10.68 10.0898C10.5733 10.3698 10.42 10.6098 10.22 10.8098C10.02 11.0098 9.78 11.1632 9.5 11.2698C9.22 11.3765 8.86667 11.4432 8.44 11.4698C7.90667 11.4965 7.09333 11.5098 6 11.5098C4.90667 11.5098 4.09333 11.4965 3.56 11.4698C3.13333 11.4432 2.78 11.3765 2.5 11.2698C2.22 11.1632 1.98 11.0098 1.78 10.8098C1.58 10.6098 1.42667 10.3698 1.32 10.0898C1.21333 9.80984 1.14667 9.45651 1.12 9.02984C1.09333 8.49651 1.08 7.67651 1.08 6.56984C1.08 5.46318 1.09333 4.65651 1.12 4.14984C1.14667 3.72318 1.21333 3.36984 1.32 3.08984C1.42667 2.80984 1.58 2.56984 1.78 2.36984C1.98 2.16984 2.22 2.01651 2.5 1.90984C2.78 1.80318 3.14667 1.73651 3.6 1.70984C4.05333 1.68318 4.68 1.66984 5.48 1.66984ZM9.2 2.66984C9.01333 2.66984 8.84667 2.73651 8.7 2.86984C8.55333 3.00318 8.48 3.16984 8.48 3.36984C8.48 3.56984 8.55333 3.74318 8.7 3.88984C8.84667 4.03651 9.02 4.10984 9.22 4.10984C9.42 4.10984 9.58667 4.03651 9.72 3.88984C9.85333 3.74318 9.92 3.56984 9.92 3.36984C9.92 3.16984 9.85333 3.00318 9.72 2.86984C9.58667 2.73651 9.41333 2.66984 9.2 2.66984ZM6 3.50984C5.44 3.50984 4.92 3.64318 4.44 3.90984C3.96 4.17651 3.58 4.54984 3.3 5.02984C3.02 5.50984 2.88 6.02984 2.88 6.58984C2.88 7.14984 3.02 7.66984 3.3 8.14984C3.58 8.62984 3.96 9.00318 4.44 9.26984C4.92 9.53651 5.44 9.66984 6 9.66984C6.56 9.66984 7.07333 9.52984 7.54 9.24984C8.00667 8.96984 8.37333 8.59651 8.64 8.12984C8.90667 7.66318 9.04 7.14984 9.04 6.58984C9.04 6.02984 8.90667 5.51651 8.64 5.04984C8.37333 4.58318 8.00667 4.20984 7.54 3.92984C7.07333 3.64984 6.56 3.50984 6 3.50984ZM6 4.58984C6.34667 4.58984 6.68 4.67651 7 4.84984C7.32 5.02318 7.56667 5.26984 7.74 5.58984C7.91333 5.90984 8 6.24318 8 6.58984C8 6.93651 7.91333 7.26984 7.74 7.58984C7.56667 7.90984 7.32 8.15651 7 8.32984C6.68 8.50318 6.34667 8.58984 6 8.58984C5.44 8.58984 4.96667 8.39651 4.58 8.00984C4.19333 7.62318 4 7.14984 4 6.58984C4 6.02984 4.19333 5.55651 4.58 5.16984C4.96667 4.78318 5.44 4.58984 6 4.58984Z" fill="#CCCCCC"/>
</svg>
