<svg width="12" height="13" viewBox="0 0 12 13" fill="none" xmlns="http://www.w3.org/2000/svg">
<g clip-path="url(#clip0_206_198)">
<path d="M12 6.62984C12 5.53651 11.7333 4.52984 11.2 3.60984C10.6667 2.68984 9.94 1.95651 9.02 1.40984C8.1 0.863177 7.09333 0.589844 6 0.589844C4.90667 0.589844 3.9 0.863177 2.98 1.40984C2.06 1.95651 1.33333 2.68984 0.8 3.60984C0.266667 4.52984 0 5.53651 0 6.62984C0 7.61651 0.22 8.53651 0.66 9.38984C1.1 10.2432 1.70667 10.9498 2.48 11.5098C3.25333 12.0698 4.12 12.4298 5.08 12.5898V8.38984H3.52V6.62984H5.08V5.30984C5.08 4.56318 5.28 3.98318 5.68 3.56984C6.08 3.15651 6.62667 2.94984 7.32 2.94984C7.58667 2.94984 7.89333 2.96318 8.24 2.98984L8.68 3.06984V4.54984H7.92C7.57333 4.54984 7.32 4.63651 7.16 4.80984C7 4.98318 6.92 5.21651 6.92 5.50984V6.62984H8.6L8.32 8.38984H6.92V12.5898C7.88 12.4298 8.74667 12.0698 9.52 11.5098C10.2933 10.9498 10.9 10.2432 11.34 9.38984C11.78 8.53651 12 7.61651 12 6.62984Z" fill="#CCCCCC"/>
</g>
<defs>
<clipPath id="clip0_206_198">
<rect width="12" height="12" fill="white" transform="matrix(1 0 0 -1 0 12.5898)"/>
</clipPath>
</defs>
</svg>
